<svg id="visual" viewBox="0 0 1920 1080" width="1920" height="1080" xmlns="http://www.w3.org/2000/svg" xmlns:xlink="http://www.w3.org/1999/xlink" version="1.1"><rect x="0" y="0" width="1920" height="1080" fill="#dae3ef"></rect><defs><linearGradient id="grad1_0" x1="43.8%" y1="0%" x2="100%" y2="100%"><stop offset="14.444444444444446%" stop-color="#dae3ef" stop-opacity="1"></stop><stop offset="85.55555555555554%" stop-color="#dae3ef" stop-opacity="1"></stop></linearGradient></defs><defs><linearGradient id="grad2_0" x1="0%" y1="0%" x2="56.3%" y2="100%"><stop offset="14.444444444444446%" stop-color="#dae3ef" stop-opacity="1"></stop><stop offset="85.55555555555554%" stop-color="#dae3ef" stop-opacity="1"></stop></linearGradient></defs><g transform="translate(1920, 0)"><path d="M0 972C-79.5 889 -159.1 806.1 -251.2 773.2C-343.4 740.3 -448.1 757.6 -524.3 721.6C-600.5 685.7 -648.1 596.6 -717.6 521.4C-787.1 446.2 -878.4 384.9 -924.4 300.4C-970.5 215.8 -971.2 107.9 -972 0L0 0Z" fill="#5098b3"></path></g><g transform="translate(0, 1080)"><path d="M0 -972C86.2 -914.5 172.5 -856.9 271.3 -835C370.1 -813.1 481.5 -826.8 571.3 -786.4C661.1 -745.9 729.3 -651.2 764.5 -555.5C799.8 -459.7 802.1 -362.8 831.2 -270.1C860.3 -177.3 916.2 -88.7 972 0L0 0Z" fill="#5098b3"></path></g></svg>