<svg id="visual" viewBox="0 0 1920 1080" width="1920" height="1080" xmlns="http://www.w3.org/2000/svg" xmlns:xlink="http://www.w3.org/1999/xlink" version="1.1"><rect x="0" y="0" width="1920" height="1080" fill="#dae3ef"></rect><defs><linearGradient id="grad1_0" x1="43.8%" y1="100%" x2="100%" y2="0%"><stop offset="14.444444444444446%" stop-color="#dae3ef" stop-opacity="1"></stop><stop offset="85.55555555555554%" stop-color="#dae3ef" stop-opacity="1"></stop></linearGradient></defs><defs><linearGradient id="grad2_0" x1="0%" y1="100%" x2="56.3%" y2="0%"><stop offset="14.444444444444446%" stop-color="#dae3ef" stop-opacity="1"></stop><stop offset="85.55555555555554%" stop-color="#dae3ef" stop-opacity="1"></stop></linearGradient></defs><g transform="translate(1920, 1080)"><path d="M-972 0C-889 -79.5 -806.1 -159.1 -773.2 -251.2C-740.3 -343.4 -757.6 -448.1 -721.6 -524.3C-685.7 -600.5 -596.6 -648.1 -521.4 -717.6C-446.2 -787.1 -384.9 -878.4 -300.4 -924.4C-215.8 -970.5 -107.9 -971.2 0 -972L0 0Z" fill="#5098b3"></path></g><g transform="translate(0, 0)"><path d="M972 0C914.5 86.2 856.9 172.5 835 271.3C813.1 370.1 826.8 481.5 786.4 571.3C745.9 661.1 651.2 729.3 555.5 764.5C459.7 799.8 362.8 802.1 270.1 831.2C177.3 860.3 88.7 916.2 0 972L0 0Z" fill="#5098b3"></path></g></svg>