<svg id="visual" viewBox="0 0 900 600" width="900" height="600" xmlns="http://www.w3.org/2000/svg" xmlns:xlink="http://www.w3.org/1999/xlink" version="1.1"><rect x="0" y="0" width="900" height="600" fill="#dae3ef"></rect><defs><linearGradient id="grad1_0" x1="33.3%" y1="0%" x2="100%" y2="100%"><stop offset="20%" stop-color="#dae3ef" stop-opacity="1"></stop><stop offset="80%" stop-color="#dae3ef" stop-opacity="1"></stop></linearGradient></defs><defs><linearGradient id="grad2_0" x1="0%" y1="0%" x2="66.7%" y2="100%"><stop offset="20%" stop-color="#dae3ef" stop-opacity="1"></stop><stop offset="80%" stop-color="#dae3ef" stop-opacity="1"></stop></linearGradient></defs><g transform="translate(900, 0)"><path d="M0 256C-50.8 257.3 -101.7 258.6 -135.2 234.2C-168.8 209.8 -185 159.8 -201.8 116.5C-218.5 73.2 -235.8 36.6 -253 0L0 0Z" fill="#5098b3"></path></g><g transform="translate(0, 600)"><path d="M0 -241C49.2 -247.7 98.5 -254.4 135.2 -234.2C171.9 -214 196.2 -167 213.9 -123.5C231.6 -80 242.8 -40 254 0L0 0Z" fill="#5098b3"></path></g></svg>