<svg xmlns="http://www.w3.org/2000/svg" xmlns:xlink="http://www.w3.org/1999/xlink" width="500" zoomAndPan="magnify" viewBox="0 0 375 374.999991" height="500" preserveAspectRatio="xMidYMid meet" version="1.0"><defs><g/><clipPath id="4aa75be3a2"><path d="M 68.574219 47.933594 L 297.324219 47.933594 L 297.324219 259.929688 L 68.574219 259.929688 Z M 68.574219 47.933594 " clip-rule="nonzero"/></clipPath><clipPath id="c46c3ae037"><path d="M 15 160 L 101 160 L 101 237 L 15 237 Z M 15 160 " clip-rule="nonzero"/></clipPath><clipPath id="41d4dbb6c7"><path d="M 15.457031 209.066406 L 79.582031 160.324219 L 100.484375 187.820312 L 36.359375 236.5625 Z M 15.457031 209.066406 " clip-rule="nonzero"/></clipPath><clipPath id="7a0083901a"><path d="M 15.457031 209.066406 L 79.492188 160.390625 L 100.394531 187.890625 L 36.359375 236.5625 Z M 15.457031 209.066406 " clip-rule="nonzero"/></clipPath><clipPath id="5e3b08b803"><path d="M 264 155 L 360 155 L 360 235 L 264 235 Z M 264 155 " clip-rule="nonzero"/></clipPath><clipPath id="faf2c7f1ba"><path d="M 285.652344 155.785156 L 359.613281 200.945312 L 338.824219 235 L 264.863281 189.839844 Z M 285.652344 155.785156 " clip-rule="nonzero"/></clipPath><clipPath id="4c459e16de"><path d="M 285.652344 155.785156 L 359.542969 200.898438 L 338.75 234.953125 L 264.863281 189.839844 Z M 285.652344 155.785156 " clip-rule="nonzero"/></clipPath><clipPath id="a980d47420"><path d="M 105.707031 126.226562 L 257.441406 126.226562 L 257.441406 185.289062 L 105.707031 185.289062 Z M 105.707031 126.226562 " clip-rule="nonzero"/></clipPath><clipPath id="c381b9d35a"><path d="M 118.507812 116.335938 L 244.507812 116.335938 L 244.507812 186 L 118.507812 186 Z M 118.507812 116.335938 " clip-rule="nonzero"/></clipPath><clipPath id="da28d74f1b"><path d="M 118.507812 175.542969 L 260.242188 175.542969 L 260.242188 236.03125 L 118.507812 236.03125 Z M 118.507812 175.542969 " clip-rule="nonzero"/></clipPath><clipPath id="4225163b16"><path d="M 118.507812 119 L 244.507812 119 L 244.507812 189 L 118.507812 189 Z M 118.507812 119 " clip-rule="nonzero"/></clipPath><clipPath id="508bb86924"><path d="M 137 185 L 227 185 L 227 232.699219 L 137 232.699219 Z M 137 185 " clip-rule="nonzero"/></clipPath><clipPath id="414903fef5"><path d="M 181 105 L 232 105 L 232 173.085938 L 181 173.085938 Z M 181 105 " clip-rule="nonzero"/></clipPath><clipPath id="7bcf3a9a6d"><path d="M 181 71.835938 L 186 71.835938 L 186 93 L 181 93 Z M 181 71.835938 " clip-rule="nonzero"/></clipPath><clipPath id="bf866445ba"><path d="M 147.277344 105 L 169 105 L 169 110 L 147.277344 110 Z M 147.277344 105 " clip-rule="nonzero"/></clipPath><clipPath id="e97b9502cf"><path d="M 181 105 L 232 105 L 232 173.085938 L 181 173.085938 Z M 181 105 " clip-rule="nonzero"/></clipPath><clipPath id="23baeee70f"><path d="M 181 71.835938 L 186 71.835938 L 186 93 L 181 93 Z M 181 71.835938 " clip-rule="nonzero"/></clipPath><clipPath id="83e0c90b1a"><path d="M 147.277344 105 L 169 105 L 169 110 L 147.277344 110 Z M 147.277344 105 " clip-rule="nonzero"/></clipPath></defs><rect x="-37.5" width="450" fill="#ffffff" y="-37.499999" height="449.999989" fill-opacity="1"/><rect x="-37.5" width="450" fill="#ffffff" y="-37.499999" height="449.999989" fill-opacity="1"/><g clip-path="url(#4aa75be3a2)"><path stroke-linecap="butt" transform="matrix(0.75, 0, 0, 0.75, 68.572368, 47.931746)" fill="none" stroke-linejoin="miter" d="M 0.00246767 0.00246413 L 305.064988 0.00246413 L 305.064988 282.663941 L 0.00246767 282.663941 Z M 0.00246767 0.00246413 " stroke="#4d4d4d" stroke-width="14" stroke-opacity="1" stroke-miterlimit="4"/></g><g clip-path="url(#c46c3ae037)"><g clip-path="url(#41d4dbb6c7)"><g clip-path="url(#7a0083901a)"><path fill="#ffffff" d="M 15.457031 209.066406 L 79.476562 160.40625 L 100.375 187.902344 L 36.359375 236.5625 Z M 15.457031 209.066406 " fill-opacity="1" fill-rule="nonzero"/></g></g></g><g clip-path="url(#5e3b08b803)"><g clip-path="url(#faf2c7f1ba)"><g clip-path="url(#4c459e16de)"><path fill="#ffffff" d="M 285.652344 155.785156 L 359.480469 200.863281 L 338.6875 234.917969 L 264.863281 189.839844 Z M 285.652344 155.785156 " fill-opacity="1" fill-rule="nonzero"/></g></g></g><g clip-path="url(#a980d47420)"><path fill="#ffffff" d="M 105.707031 126.226562 L 257.511719 126.226562 L 257.511719 185.289062 L 105.707031 185.289062 Z M 105.707031 126.226562 " fill-opacity="1" fill-rule="nonzero"/></g><g clip-path="url(#c381b9d35a)"><path fill="#ffffff" d="M 181.457031 130.007812 L 128.847656 184.351562 C 127.707031 185.527344 125.730469 185.945312 124.019531 185.371094 C 124.019531 185.371094 124.015625 185.371094 124.015625 185.371094 C 121.601562 184.5625 119.800781 182.890625 119.152344 180.855469 C 118.503906 178.820312 119.082031 176.660156 120.714844 175.019531 C 134.992188 160.671875 167.261719 128.238281 176.976562 118.476562 C 178.597656 116.847656 181.425781 116.363281 183.730469 117.320312 C 184.660156 117.585938 185.511719 118.054688 186.164062 118.710938 C 195.878906 128.476562 228.148438 160.90625 242.425781 175.257812 C 244.054688 176.898438 244.636719 179.058594 243.988281 181.09375 C 243.335938 183.125 241.539062 184.796875 239.125 185.605469 C 239.121094 185.605469 239.121094 185.605469 239.121094 185.609375 C 237.410156 186.179688 235.429688 185.761719 234.292969 184.585938 Z M 181.457031 130.007812 " fill-opacity="1" fill-rule="evenodd"/></g><path fill="#ffffff" d="M 137.085938 186.21875 L 137.085938 227.1875 C 137.085938 228.734375 138.339844 229.984375 139.882812 229.984375 L 168.46875 229.984375 C 170.007812 229.984375 171.257812 228.738281 171.261719 227.195312 L 171.316406 205.519531 C 171.316406 205.519531 191.378906 205.320312 191.378906 205.320312 C 191.378906 205.320312 191.554688 227.210938 191.554688 227.210938 C 191.566406 228.746094 192.816406 229.984375 194.351562 229.984375 L 223.257812 229.984375 C 224.800781 229.984375 226.054688 228.734375 226.054688 227.1875 L 226.054688 185.863281 C 226.054688 184.320312 224.800781 183.066406 223.257812 183.066406 C 221.714844 183.066406 220.460938 184.320312 220.460938 185.863281 L 220.460938 224.390625 C 220.460938 224.390625 197.125 224.390625 197.125 224.390625 C 197.125 224.390625 196.949219 202.472656 196.949219 202.472656 C 196.945312 201.730469 196.644531 201.019531 196.113281 200.5 C 195.582031 199.980469 194.867188 199.691406 194.125 199.699219 L 168.5 199.957031 C 166.96875 199.96875 165.734375 201.214844 165.730469 202.746094 C 165.730469 202.746094 165.695312 217.980469 165.679688 224.390625 C 165.679688 224.390625 149.355469 224.390625 142.679688 224.390625 C 142.679688 224.390625 142.679688 186.21875 142.679688 186.21875 C 142.679688 184.675781 141.425781 183.421875 139.882812 183.421875 C 138.339844 183.421875 137.085938 184.675781 137.085938 186.21875 Z M 137.085938 186.21875 " fill-opacity="1" fill-rule="evenodd"/><g clip-path="url(#da28d74f1b)"><path fill="#ffffff" d="M 118.507812 175.542969 L 260.277344 175.542969 L 260.277344 236.03125 L 118.507812 236.03125 Z M 118.507812 175.542969 " fill-opacity="1" fill-rule="nonzero"/></g><g clip-path="url(#4225163b16)"><path fill="#4d4d4d" d="M 181.457031 132.375 L 128.847656 186.714844 C 127.707031 187.890625 125.730469 188.308594 124.019531 187.734375 C 124.019531 187.734375 124.015625 187.734375 124.015625 187.734375 C 121.601562 186.925781 119.800781 185.253906 119.152344 183.21875 C 118.503906 181.1875 119.082031 179.023438 120.714844 177.382812 C 134.992188 163.035156 167.261719 130.601562 176.976562 120.839844 C 178.597656 119.210938 181.425781 118.726562 183.730469 119.683594 C 184.660156 119.949219 185.511719 120.417969 186.164062 121.074219 C 195.878906 130.839844 228.148438 163.269531 242.425781 177.621094 C 244.054688 179.261719 244.636719 181.421875 243.988281 183.457031 C 243.335938 185.488281 241.539062 187.160156 239.125 187.96875 C 239.121094 187.96875 239.121094 187.972656 239.121094 187.972656 C 237.410156 188.542969 235.429688 188.125 234.292969 186.949219 Z M 181.457031 132.375 " fill-opacity="1" fill-rule="evenodd"/></g><g clip-path="url(#508bb86924)"><path fill="#4d4d4d" d="M 137.085938 188.582031 L 137.085938 229.550781 C 137.085938 231.097656 138.339844 232.347656 139.882812 232.347656 L 168.46875 232.347656 C 170.007812 232.347656 171.257812 231.101562 171.261719 229.558594 L 171.316406 207.882812 C 171.316406 207.882812 191.378906 207.683594 191.378906 207.683594 C 191.378906 207.683594 191.554688 229.574219 191.554688 229.574219 C 191.566406 231.109375 192.816406 232.347656 194.351562 232.347656 L 223.257812 232.347656 C 224.800781 232.347656 226.054688 231.097656 226.054688 229.550781 L 226.054688 188.226562 C 226.054688 186.683594 224.800781 185.429688 223.257812 185.429688 C 221.714844 185.429688 220.460938 186.683594 220.460938 188.226562 L 220.460938 226.757812 C 220.460938 226.757812 197.125 226.757812 197.125 226.757812 C 197.125 226.757812 196.949219 204.835938 196.949219 204.835938 C 196.945312 204.09375 196.644531 203.382812 196.113281 202.863281 C 195.582031 202.34375 194.867188 202.054688 194.125 202.0625 L 168.5 202.320312 C 166.96875 202.332031 165.734375 203.578125 165.730469 205.109375 C 165.730469 205.109375 165.695312 220.34375 165.679688 226.757812 C 165.679688 226.757812 149.355469 226.757812 142.679688 226.757812 C 142.679688 226.757812 142.679688 188.582031 142.679688 188.582031 C 142.679688 187.039062 141.425781 185.785156 139.882812 185.785156 C 138.339844 185.785156 137.085938 187.039062 137.085938 188.582031 Z M 137.085938 188.582031 " fill-opacity="1" fill-rule="evenodd"/></g><g clip-path="url(#414903fef5)"><path fill="#5098b3" d="M 230.96875 144.089844 L 184.527344 106.089844 C 184.210938 105.832031 183.851562 105.679688 183.445312 105.628906 C 183.042969 105.582031 182.65625 105.644531 182.289062 105.816406 C 181.917969 105.992188 181.625 106.253906 181.410156 106.597656 C 181.191406 106.941406 181.082031 107.316406 181.082031 107.722656 L 181.082031 171.054688 C 181.082031 171.523438 181.21875 171.941406 181.496094 172.316406 C 181.773438 172.6875 182.132812 172.945312 182.578125 173.078125 C 182.777344 173.136719 182.984375 173.167969 183.191406 173.167969 C 183.542969 173.167969 183.878906 173.082031 184.1875 172.917969 C 184.5 172.75 184.753906 172.519531 184.949219 172.226562 L 201.210938 147.835938 L 229.636719 147.835938 C 230.082031 147.832031 230.488281 147.703125 230.851562 147.449219 C 231.214844 147.191406 231.472656 146.851562 231.621094 146.429688 C 231.773438 146.011719 231.785156 145.585938 231.667969 145.15625 C 231.546875 144.726562 231.316406 144.371094 230.96875 144.089844 Z M 230.96875 144.089844 " fill-opacity="1" fill-rule="nonzero"/></g><g clip-path="url(#7bcf3a9a6d)"><path fill="#ffffff" d="M 183.191406 92.945312 C 182.910156 92.945312 182.644531 92.890625 182.382812 92.785156 C 182.125 92.679688 181.898438 92.527344 181.699219 92.328125 C 181.5 92.128906 181.347656 91.902344 181.242188 91.644531 C 181.132812 91.382812 181.082031 91.113281 181.082031 90.835938 L 181.082031 73.945312 C 181.082031 73.667969 181.132812 73.398438 181.242188 73.136719 C 181.347656 72.878906 181.5 72.652344 181.699219 72.453125 C 181.898438 72.253906 182.125 72.101562 182.382812 71.996094 C 182.644531 71.890625 182.910156 71.835938 183.191406 71.835938 C 183.472656 71.835938 183.742188 71.890625 184 71.996094 C 184.257812 72.101562 184.488281 72.253906 184.683594 72.453125 C 184.882812 72.652344 185.035156 72.878906 185.140625 73.136719 C 185.25 73.398438 185.304688 73.667969 185.304688 73.945312 L 185.304688 90.835938 C 185.304688 91.113281 185.25 91.382812 185.140625 91.644531 C 185.035156 91.902344 184.882812 92.128906 184.683594 92.328125 C 184.488281 92.527344 184.257812 92.679688 184 92.785156 C 183.742188 92.890625 183.472656 92.945312 183.191406 92.945312 Z M 183.191406 92.945312 " fill-opacity="1" fill-rule="nonzero"/></g><g clip-path="url(#bf866445ba)"><path fill="#ffffff" d="M 166.304688 109.835938 L 149.414062 109.835938 C 149.132812 109.835938 148.867188 109.78125 148.605469 109.675781 C 148.347656 109.566406 148.121094 109.414062 147.921875 109.214844 C 147.722656 109.019531 147.570312 108.789062 147.464844 108.53125 C 147.355469 108.273438 147.304688 108.003906 147.304688 107.722656 C 147.304688 107.445312 147.355469 107.175781 147.464844 106.914062 C 147.570312 106.65625 147.722656 106.429688 147.921875 106.230469 C 148.121094 106.03125 148.347656 105.878906 148.605469 105.773438 C 148.867188 105.667969 149.132812 105.613281 149.414062 105.613281 L 166.304688 105.613281 C 166.582031 105.613281 166.851562 105.667969 167.109375 105.773438 C 167.371094 105.878906 167.597656 106.03125 167.796875 106.230469 C 167.992188 106.429688 168.144531 106.65625 168.253906 106.914062 C 168.359375 107.175781 168.414062 107.445312 168.414062 107.722656 C 168.414062 108.003906 168.359375 108.273438 168.253906 108.53125 C 168.144531 108.789062 167.992188 109.019531 167.796875 109.214844 C 167.597656 109.414062 167.371094 109.566406 167.109375 109.675781 C 166.851562 109.78125 166.582031 109.835938 166.304688 109.835938 Z M 166.304688 109.835938 " fill-opacity="1" fill-rule="nonzero"/></g><path fill="#ffffff" d="M 216.96875 109.835938 L 200.082031 109.835938 C 199.800781 109.835938 199.53125 109.78125 199.273438 109.675781 C 199.015625 109.566406 198.785156 109.414062 198.585938 109.214844 C 198.390625 109.019531 198.238281 108.789062 198.128906 108.53125 C 198.023438 108.273438 197.96875 108.003906 197.96875 107.722656 C 197.96875 107.445312 198.023438 107.175781 198.128906 106.914062 C 198.238281 106.65625 198.390625 106.429688 198.585938 106.230469 C 198.785156 106.03125 199.015625 105.878906 199.273438 105.773438 C 199.53125 105.667969 199.800781 105.613281 200.082031 105.613281 L 216.96875 105.613281 C 217.25 105.613281 217.519531 105.667969 217.777344 105.773438 C 218.035156 105.878906 218.265625 106.03125 218.460938 106.230469 C 218.660156 106.429688 218.8125 106.65625 218.917969 106.914062 C 219.027344 107.175781 219.082031 107.445312 219.082031 107.722656 C 219.082031 108.003906 219.027344 108.273438 218.917969 108.53125 C 218.8125 108.789062 218.660156 109.019531 218.460938 109.214844 C 218.265625 109.414062 218.035156 109.566406 217.777344 109.675781 C 217.519531 109.78125 217.25 109.835938 216.96875 109.835938 Z M 216.96875 109.835938 " fill-opacity="1" fill-rule="nonzero"/><path fill="#ffffff" d="M 171.25 97.894531 C 170.667969 97.894531 170.171875 97.691406 169.757812 97.277344 L 157.8125 85.347656 C 157.613281 85.148438 157.460938 84.917969 157.351562 84.65625 C 157.246094 84.398438 157.191406 84.125 157.191406 83.84375 C 157.191406 83.5625 157.246094 83.292969 157.351562 83.035156 C 157.460938 82.773438 157.613281 82.542969 157.8125 82.34375 C 158.011719 82.144531 158.242188 81.992188 158.5 81.886719 C 158.761719 81.777344 159.03125 81.722656 159.3125 81.722656 C 159.59375 81.722656 159.867188 81.777344 160.125 81.882812 C 160.386719 81.992188 160.617188 82.144531 160.8125 82.34375 L 172.742188 94.289062 C 173.042969 94.589844 173.238281 94.949219 173.320312 95.371094 C 173.40625 95.789062 173.363281 96.195312 173.203125 96.589844 C 173.039062 96.988281 172.777344 97.300781 172.421875 97.539062 C 172.066406 97.777344 171.675781 97.894531 171.246094 97.894531 Z M 171.25 97.894531 " fill-opacity="1" fill-rule="nonzero"/><path fill="#ffffff" d="M 159.308594 133.71875 C 158.878906 133.71875 158.488281 133.601562 158.132812 133.363281 C 157.777344 133.128906 157.515625 132.8125 157.351562 132.417969 C 157.1875 132.023438 157.148438 131.613281 157.234375 131.195312 C 157.316406 130.777344 157.507812 130.414062 157.8125 130.113281 L 169.757812 118.167969 C 169.957031 117.976562 170.183594 117.828125 170.441406 117.726562 C 170.699219 117.625 170.964844 117.574219 171.242188 117.578125 C 171.519531 117.578125 171.785156 117.632812 172.039062 117.742188 C 172.296875 117.847656 172.519531 118 172.714844 118.195312 C 172.910156 118.390625 173.0625 118.617188 173.171875 118.871094 C 173.277344 119.125 173.332031 119.394531 173.335938 119.667969 C 173.335938 119.945312 173.285156 120.214844 173.183594 120.46875 C 173.082031 120.726562 172.933594 120.957031 172.742188 121.152344 L 160.8125 133.101562 C 160.398438 133.519531 159.894531 133.722656 159.308594 133.71875 Z M 159.308594 133.71875 " fill-opacity="1" fill-rule="nonzero"/><path fill="#ffffff" d="M 195.132812 97.894531 C 194.703125 97.894531 194.3125 97.777344 193.957031 97.539062 C 193.601562 97.300781 193.34375 96.988281 193.179688 96.589844 C 193.015625 96.195312 192.972656 95.789062 193.058594 95.371094 C 193.140625 94.949219 193.335938 94.589844 193.636719 94.289062 L 205.570312 82.34375 C 205.769531 82.152344 205.996094 82.003906 206.253906 81.902344 C 206.511719 81.800781 206.777344 81.75 207.054688 81.75 C 207.332031 81.753906 207.597656 81.808594 207.851562 81.914062 C 208.109375 82.023438 208.332031 82.175781 208.527344 82.371094 C 208.722656 82.566406 208.875 82.792969 208.984375 83.046875 C 209.089844 83.300781 209.144531 83.566406 209.148438 83.84375 C 209.148438 84.121094 209.097656 84.386719 208.996094 84.644531 C 208.894531 84.902344 208.746094 85.128906 208.554688 85.328125 L 196.625 97.273438 C 196.214844 97.6875 195.714844 97.894531 195.132812 97.894531 Z M 195.132812 97.894531 " fill-opacity="1" fill-rule="nonzero"/><g clip-path="url(#e97b9502cf)"><path stroke-linecap="round" transform="matrix(4.222167, 0, 0, 4.222167, 138.859111, 71.835149)" fill="none" stroke-linejoin="round" d="M 10.499891 23.49967 L 10.499891 8.499783 L 21.500239 17.4999 L 14.500354 17.4999 Z M 10.499891 23.49967 " stroke="#000000" stroke-width="1" stroke-opacity="1" stroke-miterlimit="4"/></g><g clip-path="url(#23baeee70f)"><path stroke-linecap="round" transform="matrix(4.222167, 0, 0, 4.222167, 138.859111, 71.835149)" fill="none" stroke-linejoin="round" d="M 10.499891 0.499782 L 10.499891 4.500245 " stroke="#000000" stroke-width="1" stroke-opacity="1" stroke-miterlimit="4"/></g><g clip-path="url(#83e0c90b1a)"><path stroke-linecap="round" transform="matrix(4.222167, 0, 0, 4.222167, 138.859111, 71.835149)" fill="none" stroke-linejoin="round" d="M 2.499889 8.499783 L 6.500353 8.499783 " stroke="#000000" stroke-width="1" stroke-opacity="1" stroke-miterlimit="4"/></g><path stroke-linecap="round" transform="matrix(4.222167, 0, 0, 4.222167, 138.859111, 71.835149)" fill="none" stroke-linejoin="round" d="M 18.499892 8.499783 L 14.500354 8.499783 " stroke="#000000" stroke-width="1" stroke-opacity="1" stroke-miterlimit="4"/><path stroke-linecap="round" transform="matrix(4.222167, 0, 0, 4.222167, 138.859111, 71.835149)" fill="none" stroke-linejoin="round" d="M 4.843361 2.843254 L 7.671626 5.672444 " stroke="#000000" stroke-width="1" stroke-opacity="1" stroke-miterlimit="4"/><path stroke-linecap="round" transform="matrix(4.222167, 0, 0, 4.222167, 138.859111, 71.835149)" fill="none" stroke-linejoin="round" d="M 4.843361 14.157238 L 7.671626 11.328048 " stroke="#000000" stroke-width="1" stroke-opacity="1" stroke-miterlimit="4"/><path stroke-linecap="round" transform="matrix(4.222167, 0, 0, 4.222167, 138.859111, 71.835149)" fill="none" stroke-linejoin="round" d="M 16.157345 2.843254 L 13.328155 5.672444 " stroke="#000000" stroke-width="1" stroke-opacity="1" stroke-miterlimit="4"/><g fill="#5098b3" fill-opacity="1"><g transform="translate(117.013137, 293.385742)"><g><path d="M 19.609375 -22.875 L 19.609375 -18.484375 L 12.703125 -18.484375 L 12.703125 0 L 7.5625 0 L 7.5625 -18.484375 L 0.65625 -18.484375 L 0.65625 -22.875 Z M 19.609375 -22.875 "/></g></g></g><g fill="#5098b3" fill-opacity="1"><g transform="translate(137.275094, 293.385742)"><g><path d="M 2.640625 0 L 2.640625 -22.875 L 18.078125 -22.875 L 18.078125 -18.546875 L 7.78125 -18.546875 L 7.78125 -14.0625 L 16.921875 -14.0625 L 16.921875 -9.828125 L 7.78125 -9.828125 L 7.78125 -4.328125 L 18.84375 -4.328125 L 18.84375 0 Z M 2.640625 0 "/></g></g></g><g fill="#5098b3" fill-opacity="1"><g transform="translate(157.273048, 293.385742)"><g><path d="M 15.140625 -7.6875 C 15.140625 -6.5625 15.015625 -5.503906 14.765625 -4.515625 C 14.515625 -3.523438 14.070312 -2.660156 13.4375 -1.921875 C 12.8125 -1.191406 11.96875 -0.609375 10.90625 -0.171875 C 9.84375 0.253906 8.492188 0.46875 6.859375 0.46875 C 5.367188 0.46875 4.082031 0.285156 3 -0.078125 C 1.925781 -0.441406 1.035156 -0.867188 0.328125 -1.359375 L 2.046875 -5.34375 C 2.679688 -4.96875 3.363281 -4.632812 4.09375 -4.34375 C 4.820312 -4.0625 5.613281 -3.921875 6.46875 -3.921875 C 7.71875 -3.921875 8.617188 -4.226562 9.171875 -4.84375 C 9.722656 -5.46875 10 -6.503906 10 -7.953125 L 10 -22.875 L 15.140625 -22.875 Z M 15.140625 -7.6875 "/></g></g></g><g fill="#5098b3" fill-opacity="1"><g transform="translate(174.730013, 293.385742)"><g><path d="M 2.640625 0 L 2.640625 -22.875 L 18.078125 -22.875 L 18.078125 -18.546875 L 7.78125 -18.546875 L 7.78125 -14.0625 L 16.921875 -14.0625 L 16.921875 -9.828125 L 7.78125 -9.828125 L 7.78125 -4.328125 L 18.84375 -4.328125 L 18.84375 0 Z M 2.640625 0 "/></g></g></g><g fill="#5098b3" fill-opacity="1"><g transform="translate(194.727967, 293.385742)"><g><path d="M 9.34375 -23.140625 C 12.769531 -23.140625 15.394531 -22.523438 17.21875 -21.296875 C 19.050781 -20.078125 19.96875 -18.179688 19.96875 -15.609375 C 19.96875 -14.003906 19.597656 -12.703125 18.859375 -11.703125 C 18.117188 -10.703125 17.054688 -9.914062 15.671875 -9.34375 C 16.140625 -8.769531 16.625 -8.113281 17.125 -7.375 C 17.632812 -6.632812 18.132812 -5.863281 18.625 -5.0625 C 19.125 -4.257812 19.601562 -3.421875 20.0625 -2.546875 C 20.519531 -1.679688 20.945312 -0.832031 21.34375 0 L 15.578125 0 C 15.160156 -0.75 14.734375 -1.507812 14.296875 -2.28125 C 13.867188 -3.050781 13.429688 -3.796875 12.984375 -4.515625 C 12.535156 -5.242188 12.085938 -5.929688 11.640625 -6.578125 C 11.203125 -7.234375 10.765625 -7.820312 10.328125 -8.34375 L 7.78125 -8.34375 L 7.78125 0 L 2.640625 0 L 2.640625 -22.53125 C 3.765625 -22.757812 4.925781 -22.914062 6.125 -23 C 7.320312 -23.09375 8.394531 -23.140625 9.34375 -23.140625 Z M 9.640625 -18.75 C 9.265625 -18.75 8.925781 -18.734375 8.625 -18.703125 C 8.332031 -18.679688 8.050781 -18.660156 7.78125 -18.640625 L 7.78125 -12.4375 L 9.234375 -12.4375 C 11.171875 -12.4375 12.554688 -12.675781 13.390625 -13.15625 C 14.234375 -13.644531 14.65625 -14.472656 14.65625 -15.640625 C 14.65625 -16.765625 14.226562 -17.5625 13.375 -18.03125 C 12.53125 -18.507812 11.285156 -18.75 9.640625 -18.75 Z M 9.640625 -18.75 "/></g></g></g><g fill="#5098b3" fill-opacity="1"><g transform="translate(216.738925, 293.385742)"><g><path d="M 6.96875 -11.453125 C 6.96875 -10.328125 7.101562 -9.3125 7.375 -8.40625 C 7.644531 -7.507812 8.039062 -6.734375 8.5625 -6.078125 C 9.082031 -5.429688 9.710938 -4.929688 10.453125 -4.578125 C 11.203125 -4.234375 12.0625 -4.0625 13.03125 -4.0625 C 13.976562 -4.0625 14.832031 -4.234375 15.59375 -4.578125 C 16.351562 -4.929688 16.988281 -5.429688 17.5 -6.078125 C 18.019531 -6.734375 18.414062 -7.507812 18.6875 -8.40625 C 18.96875 -9.3125 19.109375 -10.328125 19.109375 -11.453125 C 19.109375 -12.578125 18.96875 -13.59375 18.6875 -14.5 C 18.414062 -15.414062 18.019531 -16.195312 17.5 -16.84375 C 16.988281 -17.488281 16.351562 -17.988281 15.59375 -18.34375 C 14.832031 -18.695312 13.976562 -18.875 13.03125 -18.875 C 12.0625 -18.875 11.203125 -18.691406 10.453125 -18.328125 C 9.710938 -17.960938 9.082031 -17.457031 8.5625 -16.8125 C 8.039062 -16.164062 7.644531 -15.382812 7.375 -14.46875 C 7.101562 -13.550781 6.96875 -12.546875 6.96875 -11.453125 Z M 24.421875 -11.453125 C 24.421875 -9.492188 24.128906 -7.769531 23.546875 -6.28125 C 22.960938 -4.800781 22.164062 -3.5625 21.15625 -2.5625 C 20.144531 -1.5625 18.9375 -0.804688 17.53125 -0.296875 C 16.132812 0.210938 14.632812 0.46875 13.03125 0.46875 C 11.46875 0.46875 9.992188 0.210938 8.609375 -0.296875 C 7.222656 -0.804688 6.015625 -1.5625 4.984375 -2.5625 C 3.953125 -3.5625 3.140625 -4.800781 2.546875 -6.28125 C 1.953125 -7.769531 1.65625 -9.492188 1.65625 -11.453125 C 1.65625 -13.410156 1.960938 -15.128906 2.578125 -16.609375 C 3.191406 -18.097656 4.019531 -19.347656 5.0625 -20.359375 C 6.113281 -21.367188 7.328125 -22.125 8.703125 -22.625 C 10.078125 -23.132812 11.519531 -23.390625 13.03125 -23.390625 C 14.59375 -23.390625 16.066406 -23.132812 17.453125 -22.625 C 18.835938 -22.125 20.046875 -21.367188 21.078125 -20.359375 C 22.117188 -19.347656 22.9375 -18.097656 23.53125 -16.609375 C 24.125 -15.128906 24.421875 -13.410156 24.421875 -11.453125 Z M 24.421875 -11.453125 "/></g></g></g><g fill="#5098b3" fill-opacity="1"><g transform="translate(242.808873, 293.385742)"><g><path d="M 8.875 -3.921875 C 9.601562 -3.921875 10.203125 -3.984375 10.671875 -4.109375 C 11.148438 -4.234375 11.53125 -4.398438 11.8125 -4.609375 C 12.101562 -4.816406 12.300781 -5.0625 12.40625 -5.34375 C 12.519531 -5.632812 12.578125 -5.953125 12.578125 -6.296875 C 12.578125 -7.046875 12.222656 -7.664062 11.515625 -8.15625 C 10.816406 -8.65625 9.609375 -9.191406 7.890625 -9.765625 C 7.140625 -10.023438 6.390625 -10.328125 5.640625 -10.671875 C 4.890625 -11.015625 4.21875 -11.441406 3.625 -11.953125 C 3.03125 -12.472656 2.546875 -13.101562 2.171875 -13.84375 C 1.796875 -14.582031 1.609375 -15.476562 1.609375 -16.53125 C 1.609375 -17.582031 1.804688 -18.53125 2.203125 -19.375 C 2.609375 -20.226562 3.171875 -20.953125 3.890625 -21.546875 C 4.617188 -22.140625 5.5 -22.59375 6.53125 -22.90625 C 7.5625 -23.226562 8.726562 -23.390625 10.03125 -23.390625 C 11.570312 -23.390625 12.898438 -23.222656 14.015625 -22.890625 C 15.140625 -22.566406 16.066406 -22.207031 16.796875 -21.8125 L 15.3125 -17.75 C 14.675781 -18.082031 13.96875 -18.375 13.1875 -18.625 C 12.40625 -18.882812 11.460938 -19.015625 10.359375 -19.015625 C 9.128906 -19.015625 8.242188 -18.84375 7.703125 -18.5 C 7.160156 -18.15625 6.890625 -17.628906 6.890625 -16.921875 C 6.890625 -16.503906 6.988281 -16.148438 7.1875 -15.859375 C 7.382812 -15.578125 7.664062 -15.320312 8.03125 -15.09375 C 8.394531 -14.863281 8.8125 -14.65625 9.28125 -14.46875 C 9.757812 -14.28125 10.285156 -14.085938 10.859375 -13.890625 C 12.046875 -13.453125 13.078125 -13.019531 13.953125 -12.59375 C 14.835938 -12.164062 15.570312 -11.664062 16.15625 -11.09375 C 16.738281 -10.519531 17.171875 -9.847656 17.453125 -9.078125 C 17.742188 -8.304688 17.890625 -7.367188 17.890625 -6.265625 C 17.890625 -4.128906 17.140625 -2.472656 15.640625 -1.296875 C 14.140625 -0.117188 11.882812 0.46875 8.875 0.46875 C 7.863281 0.46875 6.953125 0.40625 6.140625 0.28125 C 5.328125 0.15625 4.601562 0.0078125 3.96875 -0.15625 C 3.34375 -0.332031 2.804688 -0.519531 2.359375 -0.71875 C 1.910156 -0.914062 1.53125 -1.101562 1.21875 -1.28125 L 2.671875 -5.375 C 3.359375 -5 4.203125 -4.660156 5.203125 -4.359375 C 6.203125 -4.066406 7.425781 -3.921875 8.875 -3.921875 Z M 8.875 -3.921875 "/></g></g></g><g fill="#4d4d4d" fill-opacity="1"><g transform="translate(147.778758, 319.58576)"><g><path d="M 8.5 -5.796875 C 8.707031 -5.535156 8.972656 -5.1875 9.296875 -4.75 C 9.628906 -4.3125 9.96875 -3.828125 10.3125 -3.296875 C 10.664062 -2.773438 11.007812 -2.226562 11.34375 -1.65625 C 11.6875 -1.082031 11.976562 -0.53125 12.21875 0 L 10.09375 0 C 9.832031 -0.507812 9.546875 -1.019531 9.234375 -1.53125 C 8.921875 -2.050781 8.601562 -2.546875 8.28125 -3.015625 C 7.957031 -3.492188 7.640625 -3.941406 7.328125 -4.359375 C 7.015625 -4.773438 6.734375 -5.132812 6.484375 -5.4375 C 6.304688 -5.425781 6.128906 -5.421875 5.953125 -5.421875 C 5.773438 -5.421875 5.59375 -5.421875 5.40625 -5.421875 L 3.65625 -5.421875 L 3.65625 0 L 1.71875 0 L 1.71875 -13.65625 C 2.269531 -13.789062 2.878906 -13.878906 3.546875 -13.921875 C 4.222656 -13.972656 4.84375 -14 5.40625 -14 C 7.34375 -14 8.820312 -13.628906 9.84375 -12.890625 C 10.863281 -12.160156 11.375 -11.070312 11.375 -9.625 C 11.375 -8.695312 11.128906 -7.90625 10.640625 -7.25 C 10.160156 -6.601562 9.445312 -6.117188 8.5 -5.796875 Z M 5.5625 -12.296875 C 4.726562 -12.296875 4.09375 -12.273438 3.65625 -12.234375 L 3.65625 -7.015625 L 5.046875 -7.015625 C 5.710938 -7.015625 6.3125 -7.046875 6.84375 -7.109375 C 7.375 -7.179688 7.820312 -7.3125 8.1875 -7.5 C 8.550781 -7.6875 8.832031 -7.945312 9.03125 -8.28125 C 9.238281 -8.625 9.34375 -9.078125 9.34375 -9.640625 C 9.34375 -10.160156 9.238281 -10.59375 9.03125 -10.9375 C 8.832031 -11.28125 8.5625 -11.550781 8.21875 -11.75 C 7.882812 -11.957031 7.488281 -12.097656 7.03125 -12.171875 C 6.570312 -12.253906 6.082031 -12.296875 5.5625 -12.296875 Z M 5.5625 -12.296875 "/></g></g></g><g fill="#4d4d4d" fill-opacity="1"><g transform="translate(162.353795, 319.58576)"><g><path d="M 1.71875 0 L 1.71875 -13.859375 L 10.1875 -13.859375 L 10.1875 -12.203125 L 3.65625 -12.203125 L 3.65625 -8.078125 L 9.453125 -8.078125 L 9.453125 -6.453125 L 3.65625 -6.453125 L 3.65625 -1.65625 L 10.6875 -1.65625 L 10.6875 0 Z M 1.71875 0 "/></g></g></g><g fill="#4d4d4d" fill-opacity="1"><g transform="translate(175.769283, 319.58576)"><g><path d="M 11.21875 0 C 10.925781 -0.488281 10.585938 -1.039062 10.203125 -1.65625 C 9.828125 -2.269531 9.414062 -2.90625 8.96875 -3.5625 C 8.53125 -4.226562 8.078125 -4.898438 7.609375 -5.578125 C 7.140625 -6.253906 6.671875 -6.910156 6.203125 -7.546875 C 5.734375 -8.179688 5.28125 -8.78125 4.84375 -9.34375 C 4.40625 -9.90625 4 -10.394531 3.625 -10.8125 L 3.625 0 L 1.71875 0 L 1.71875 -13.859375 L 3.265625 -13.859375 C 3.890625 -13.191406 4.554688 -12.414062 5.265625 -11.53125 C 5.984375 -10.644531 6.691406 -9.726562 7.390625 -8.78125 C 8.085938 -7.84375 8.742188 -6.921875 9.359375 -6.015625 C 9.984375 -5.109375 10.507812 -4.300781 10.9375 -3.59375 L 10.9375 -13.859375 L 12.84375 -13.859375 L 12.84375 0 Z M 11.21875 0 "/></g></g></g><g fill="#4d4d4d" fill-opacity="1"><g transform="translate(192.323541, 319.58576)"><g><path d="M 10.984375 -13.859375 L 10.984375 -12.1875 L 6.625 -12.1875 L 6.625 0 L 4.6875 0 L 4.6875 -12.1875 L 0.3125 -12.1875 L 0.3125 -13.859375 Z M 10.984375 -13.859375 "/></g></g></g><g fill="#4d4d4d" fill-opacity="1"><g transform="translate(205.619083, 319.58576)"><g><path d="M 10.984375 0 C 10.753906 -0.601562 10.539062 -1.191406 10.34375 -1.765625 C 10.144531 -2.347656 9.9375 -2.941406 9.71875 -3.546875 L 3.4375 -3.546875 L 2.1875 0 L 0.15625 0 C 0.6875 -1.46875 1.1875 -2.820312 1.65625 -4.0625 C 2.125 -5.3125 2.582031 -6.492188 3.03125 -7.609375 C 3.476562 -8.734375 3.921875 -9.804688 4.359375 -10.828125 C 4.796875 -11.847656 5.253906 -12.859375 5.734375 -13.859375 L 7.515625 -13.859375 C 7.992188 -12.859375 8.453125 -11.847656 8.890625 -10.828125 C 9.335938 -9.804688 9.785156 -8.734375 10.234375 -7.609375 C 10.679688 -6.492188 11.132812 -5.3125 11.59375 -4.0625 C 12.0625 -2.820312 12.5625 -1.46875 13.09375 0 Z M 9.15625 -5.140625 C 8.726562 -6.296875 8.304688 -7.414062 7.890625 -8.5 C 7.472656 -9.59375 7.035156 -10.640625 6.578125 -11.640625 C 6.109375 -10.640625 5.664062 -9.59375 5.25 -8.5 C 4.832031 -7.414062 4.414062 -6.296875 4 -5.140625 Z M 9.15625 -5.140625 "/></g></g></g><g fill="#4d4d4d" fill-opacity="1"><g transform="translate(220.87385, 319.58576)"><g><path d="M 10.0625 -1.6875 L 10.0625 0 L 1.71875 0 L 1.71875 -13.859375 L 3.65625 -13.859375 L 3.65625 -1.6875 Z M 10.0625 -1.6875 "/></g></g></g></svg>