<svg xmlns="http://www.w3.org/2000/svg" xmlns:xlink="http://www.w3.org/1999/xlink" width="500" zoomAndPan="magnify" viewBox="0 0 375 374.999991" height="500" preserveAspectRatio="xMidYMid meet" version="1.0"><defs><clipPath id="607deee47b"><path d="M 3.273438 21.78125 L 371.339844 21.78125 L 371.339844 362.339844 L 3.273438 362.339844 Z M 3.273438 21.78125 " clip-rule="nonzero"/></clipPath><clipPath id="066627db28"><path d="M 20.523438 21.78125 L 354 21.78125 C 363.527344 21.78125 371.25 29.503906 371.25 39.027344 L 371.25 345.492188 C 371.25 355.015625 363.527344 362.738281 354 362.738281 L 20.523438 362.738281 C 10.996094 362.738281 3.273438 355.015625 3.273438 345.492188 L 3.273438 39.027344 C 3.273438 29.503906 10.996094 21.78125 20.523438 21.78125 Z M 20.523438 21.78125 " clip-rule="nonzero"/></clipPath><clipPath id="493053b3a5"><path d="M 0 155 L 66 155 L 66 273 L 0 273 Z M 0 155 " clip-rule="nonzero"/></clipPath><clipPath id="d9ad4ffa93"><path d="M -63.390625 227.890625 L 31.96875 155.402344 L 65.585938 199.628906 L -29.777344 272.113281 Z M -63.390625 227.890625 " clip-rule="nonzero"/></clipPath><clipPath id="e003f81744"><path d="M -63.390625 227.890625 L 31.945312 155.421875 L 65.558594 199.648438 L -29.777344 272.113281 Z M -63.390625 227.890625 " clip-rule="nonzero"/></clipPath><clipPath id="ed9dc79dae"><path d="M 315 147 L 375 147 L 375 270 L 315 270 Z M 315 147 " clip-rule="nonzero"/></clipPath><clipPath id="6a7d3cc399"><path d="M 348.699219 147.707031 L 459.089844 215.109375 L 425.652344 269.878906 L 315.257812 202.476562 Z M 348.699219 147.707031 " clip-rule="nonzero"/></clipPath><clipPath id="ce451b88c1"><path d="M 348.699219 147.707031 L 459 215.054688 L 425.558594 269.824219 L 315.257812 202.476562 Z M 348.699219 147.707031 " clip-rule="nonzero"/></clipPath><clipPath id="f45c93b62a"><path d="M 62.996094 147.707031 L 307.03125 147.707031 L 307.03125 242.695312 L 62.996094 242.695312 Z M 62.996094 147.707031 " clip-rule="nonzero"/></clipPath><clipPath id="ca3b404da6"><path d="M 113 239 L 257 239 L 257 314.890625 L 113 314.890625 Z M 113 239 " clip-rule="nonzero"/></clipPath><clipPath id="b30c2be3d8"><path d="M 83.578125 227.023438 L 311.535156 227.023438 L 311.535156 324.304688 L 83.578125 324.304688 Z M 83.578125 227.023438 " clip-rule="nonzero"/></clipPath><clipPath id="1ad946d3fc"><path d="M 84 136 L 286 136 L 286 248 L 84 248 Z M 84 136 " clip-rule="nonzero"/></clipPath><clipPath id="2d7e2a012c"><path d="M 83.578125 137.105469 L 83.578125 316.9375 C 83.578125 317.335938 83.738281 317.71875 84.019531 318 C 84.300781 318.28125 84.683594 318.4375 85.078125 318.4375 L 284.949219 318.4375 C 285.347656 318.4375 285.726562 318.28125 286.007812 318 C 286.289062 317.71875 286.449219 317.335938 286.449219 316.9375 L 286.449219 137.105469 C 286.449219 136.707031 286.289062 136.324219 286.007812 136.042969 C 285.726562 135.761719 285.347656 135.605469 284.949219 135.605469 L 85.078125 135.605469 C 84.683594 135.605469 84.300781 135.761719 84.019531 136.042969 C 83.738281 136.324219 83.578125 136.707031 83.578125 137.105469 Z M 83.578125 137.105469 " clip-rule="nonzero"/></clipPath><clipPath id="2ebca24722"><path d="M 113 242 L 257 242 L 257 318.691406 L 113 318.691406 Z M 113 242 " clip-rule="nonzero"/></clipPath><clipPath id="8ffb89ef50"><path d="M 83.578125 137.105469 L 83.578125 316.9375 C 83.578125 317.335938 83.738281 317.71875 84.019531 318 C 84.300781 318.28125 84.683594 318.4375 85.078125 318.4375 L 284.949219 318.4375 C 285.347656 318.4375 285.726562 318.28125 286.007812 318 C 286.289062 317.71875 286.449219 317.335938 286.449219 316.9375 L 286.449219 137.105469 C 286.449219 136.707031 286.289062 136.324219 286.007812 136.042969 C 285.726562 135.761719 285.347656 135.605469 284.949219 135.605469 L 85.078125 135.605469 C 84.683594 135.605469 84.300781 135.761719 84.019531 136.042969 C 83.738281 136.324219 83.578125 136.707031 83.578125 137.105469 Z M 83.578125 137.105469 " clip-rule="nonzero"/></clipPath><clipPath id="038016dc93"><path d="M 184 114 L 265.511719 114 L 265.511719 223.394531 L 184 223.394531 Z M 184 114 " clip-rule="nonzero"/></clipPath><clipPath id="447c3dea6c"><path d="M 184 60.226562 L 192 60.226562 L 192 95 L 184 95 Z M 184 60.226562 " clip-rule="nonzero"/></clipPath><clipPath id="342702d0d2"><path d="M 129.855469 114 L 164 114 L 164 122 L 129.855469 122 Z M 129.855469 114 " clip-rule="nonzero"/></clipPath><clipPath id="024e9bef9f"><path d="M 184 114 L 265.511719 114 L 265.511719 223.394531 L 184 223.394531 Z M 184 114 " clip-rule="nonzero"/></clipPath><clipPath id="66251a64c0"><path d="M 184 60.226562 L 192 60.226562 L 192 95 L 184 95 Z M 184 60.226562 " clip-rule="nonzero"/></clipPath><clipPath id="7a80a19507"><path d="M 129.855469 114 L 164 114 L 164 122 L 129.855469 122 Z M 129.855469 114 " clip-rule="nonzero"/></clipPath><clipPath id="9e18303ad7"><path d="M 155.175781 339.5 L 219.347656 339.5 L 219.347656 375 L 155.175781 375 Z M 155.175781 339.5 " clip-rule="nonzero"/></clipPath><clipPath id="4b3dd32675"><path d="M 155.175781 0 L 219.347656 0 L 219.347656 48.847656 L 155.175781 48.847656 Z M 155.175781 0 " clip-rule="nonzero"/></clipPath></defs><rect x="-37.5" width="450" fill="#ffffff" y="-37.499999" height="449.999989" fill-opacity="1"/><rect x="-37.5" width="450" fill="#ffffff" y="-37.499999" height="449.999989" fill-opacity="1"/><g clip-path="url(#607deee47b)"><g clip-path="url(#066627db28)"><path stroke-linecap="butt" transform="matrix(0.948634, 0, 0, 0.948634, 3.272335, 21.779966)" fill="none" stroke-linejoin="miter" d="M 18.185196 0.00135385 L 369.718494 0.00135385 C 379.761714 0.00135385 387.902529 8.142168 387.902529 18.181271 L 387.902529 341.240248 C 387.902529 351.27935 379.761714 359.420165 369.718494 359.420165 L 18.185196 359.420165 C 8.141976 359.420165 0.00116172 351.27935 0.00116172 341.240248 L 0.00116172 18.181271 C 0.00116172 8.142168 8.141976 0.00135385 18.185196 0.00135385 Z M 18.185196 0.00135385 " stroke="#203d4a" stroke-width="47.436607" stroke-opacity="1" stroke-miterlimit="4"/></g></g><g clip-path="url(#493053b3a5)"><g clip-path="url(#d9ad4ffa93)"><g clip-path="url(#e003f81744)"><path fill="#ffffff" d="M -63.390625 227.890625 L 31.96875 155.402344 L 65.585938 199.628906 L -29.777344 272.113281 Z M -63.390625 227.890625 " fill-opacity="1" fill-rule="nonzero"/></g></g></g><g clip-path="url(#ed9dc79dae)"><g clip-path="url(#6a7d3cc399)"><g clip-path="url(#ce451b88c1)"><path fill="#ffffff" d="M 348.699219 147.707031 L 459.089844 215.109375 L 425.652344 269.878906 L 315.257812 202.476562 Z M 348.699219 147.707031 " fill-opacity="1" fill-rule="nonzero"/></g></g></g><g clip-path="url(#f45c93b62a)"><path fill="#ffffff" d="M 62.996094 147.707031 L 307.144531 147.707031 L 307.144531 242.695312 L 62.996094 242.695312 Z M 62.996094 147.707031 " fill-opacity="1" fill-rule="nonzero"/></g><path fill="#ffffff" d="M 184.824219 153.796875 L 100.210938 241.195312 C 98.378906 243.089844 95.199219 243.761719 92.445312 242.839844 C 92.445312 242.839844 92.441406 242.839844 92.441406 242.835938 C 88.558594 241.539062 85.664062 238.847656 84.621094 235.578125 C 83.578125 232.304688 84.507812 228.828125 87.132812 226.191406 C 110.097656 203.109375 161.996094 150.949219 177.617188 135.246094 C 180.226562 132.625 184.773438 131.851562 188.480469 133.386719 C 189.980469 133.8125 191.347656 134.570312 192.398438 135.628906 C 208.023438 151.328125 259.921875 203.488281 282.882812 226.570312 C 285.507812 229.207031 286.4375 232.683594 285.394531 235.957031 C 284.351562 239.226562 281.457031 241.917969 277.574219 243.21875 C 277.574219 243.21875 277.570312 243.21875 277.570312 243.21875 C 274.816406 244.140625 271.636719 243.46875 269.804688 241.578125 Z M 184.824219 153.796875 " fill-opacity="1" fill-rule="evenodd"/><g clip-path="url(#ca3b404da6)"><path fill="#ffffff" d="M 113.464844 244.199219 L 113.464844 310.09375 C 113.464844 312.578125 115.476562 314.59375 117.960938 314.59375 L 163.933594 314.59375 C 166.414062 314.59375 168.425781 312.585938 168.429688 310.105469 L 168.519531 275.246094 C 168.519531 275.246094 200.785156 274.921875 200.785156 274.921875 C 200.785156 274.921875 201.066406 310.128906 201.066406 310.128906 C 201.085938 312.601562 203.09375 314.59375 205.5625 314.59375 L 252.058594 314.59375 C 254.542969 314.59375 256.554688 312.578125 256.554688 310.09375 L 256.554688 243.628906 C 256.554688 241.144531 254.539062 239.128906 252.058594 239.128906 C 249.574219 239.128906 247.558594 241.144531 247.558594 243.628906 L 247.558594 305.597656 C 247.558594 305.597656 210.023438 305.597656 210.023438 305.597656 C 210.023438 305.597656 209.746094 270.34375 209.746094 270.34375 C 209.734375 269.148438 209.25 268.007812 208.398438 267.171875 C 207.546875 266.335938 206.398438 265.871094 205.203125 265.882812 L 163.988281 266.292969 C 161.527344 266.320312 159.539062 268.316406 159.535156 270.78125 C 159.535156 270.78125 159.472656 295.285156 159.449219 305.597656 C 159.449219 305.597656 133.199219 305.597656 122.457031 305.597656 C 122.457031 305.597656 122.457031 244.199219 122.457031 244.199219 C 122.457031 241.71875 120.445312 239.703125 117.960938 239.703125 C 115.480469 239.703125 113.464844 241.71875 113.464844 244.199219 Z M 113.464844 244.199219 " fill-opacity="1" fill-rule="evenodd"/></g><g clip-path="url(#b30c2be3d8)"><path fill="#ffffff" d="M 83.578125 227.023438 L 311.589844 227.023438 L 311.589844 324.304688 L 83.578125 324.304688 Z M 83.578125 227.023438 " fill-opacity="1" fill-rule="nonzero"/></g><g clip-path="url(#1ad946d3fc)"><g clip-path="url(#2d7e2a012c)"><path fill="#213644" d="M 184.824219 157.597656 L 100.210938 245 C 98.378906 246.890625 95.199219 247.5625 92.445312 246.640625 C 92.445312 246.640625 92.441406 246.640625 92.441406 246.640625 C 88.558594 245.339844 85.664062 242.648438 84.621094 239.378906 C 83.578125 236.105469 84.507812 232.628906 87.132812 229.992188 C 110.097656 206.910156 161.996094 154.75 177.617188 139.050781 C 180.226562 136.425781 184.773438 135.652344 188.480469 137.1875 C 189.980469 137.613281 191.347656 138.371094 192.398438 139.429688 C 208.023438 155.128906 259.921875 207.292969 282.882812 230.371094 C 285.507812 233.007812 286.4375 236.484375 285.394531 239.757812 C 284.351562 243.027344 281.457031 245.71875 277.574219 247.019531 C 277.574219 247.019531 277.570312 247.019531 277.570312 247.019531 C 274.816406 247.941406 271.636719 247.269531 269.804688 245.378906 Z M 184.824219 157.597656 " fill-opacity="1" fill-rule="evenodd"/></g></g><g clip-path="url(#2ebca24722)"><g clip-path="url(#8ffb89ef50)"><path fill="#213644" d="M 113.464844 248 L 113.464844 313.898438 C 113.464844 316.378906 115.476562 318.394531 117.960938 318.394531 L 163.933594 318.394531 C 166.414062 318.394531 168.425781 316.386719 168.429688 313.90625 L 168.519531 279.046875 C 168.519531 279.046875 200.785156 278.722656 200.785156 278.722656 C 200.785156 278.722656 201.066406 313.929688 201.066406 313.929688 C 201.085938 316.402344 203.09375 318.394531 205.5625 318.394531 L 252.058594 318.394531 C 254.542969 318.394531 256.554688 316.378906 256.554688 313.898438 L 256.554688 247.429688 C 256.554688 244.949219 254.539062 242.933594 252.058594 242.933594 C 249.574219 242.933594 247.558594 244.949219 247.558594 247.429688 L 247.558594 309.398438 C 247.558594 309.398438 210.023438 309.398438 210.023438 309.398438 C 210.023438 309.398438 209.746094 274.144531 209.746094 274.144531 C 209.734375 272.953125 209.25 271.808594 208.398438 270.972656 C 207.546875 270.136719 206.398438 269.671875 205.203125 269.683594 L 163.988281 270.09375 C 161.527344 270.121094 159.539062 272.121094 159.535156 274.582031 C 159.535156 274.582031 159.472656 299.085938 159.449219 309.398438 C 159.449219 309.398438 133.199219 309.398438 122.457031 309.398438 C 122.457031 309.398438 122.457031 248 122.457031 248 C 122.457031 245.519531 120.445312 243.503906 117.960938 243.503906 C 115.480469 243.503906 113.464844 245.519531 113.464844 248 Z M 113.464844 248 " fill-opacity="1" fill-rule="evenodd"/></g></g><g clip-path="url(#038016dc93)"><path fill="#5098b3" d="M 264.464844 176.445312 L 189.761719 115.324219 C 189.253906 114.910156 188.671875 114.664062 188.023438 114.585938 C 187.371094 114.507812 186.75 114.609375 186.160156 114.886719 C 185.566406 115.167969 185.097656 115.585938 184.746094 116.140625 C 184.394531 116.695312 184.21875 117.296875 184.21875 117.953125 L 184.21875 219.820312 C 184.21875 220.183594 184.277344 220.539062 184.390625 220.886719 C 184.503906 221.234375 184.667969 221.550781 184.886719 221.84375 C 185.105469 222.136719 185.359375 222.390625 185.660156 222.597656 C 185.957031 222.808594 186.28125 222.96875 186.628906 223.074219 C 186.949219 223.167969 187.28125 223.21875 187.613281 223.214844 C 188.183594 223.214844 188.714844 223.082031 189.21875 222.8125 C 189.71875 222.542969 190.125 222.175781 190.441406 221.699219 L 216.597656 182.46875 L 262.316406 182.46875 C 262.667969 182.46875 263.007812 182.414062 263.34375 182.308594 C 263.675781 182.203125 263.984375 182.046875 264.273438 181.847656 C 264.558594 181.644531 264.804688 181.40625 265.019531 181.125 C 265.230469 180.847656 265.394531 180.542969 265.511719 180.210938 C 265.628906 179.882812 265.695312 179.542969 265.707031 179.195312 C 265.71875 178.84375 265.679688 178.5 265.585938 178.164062 C 265.492188 177.824219 265.347656 177.511719 265.15625 177.21875 C 264.964844 176.925781 264.734375 176.667969 264.464844 176.445312 Z M 264.464844 176.445312 " fill-opacity="1" fill-rule="nonzero"/></g><g clip-path="url(#447c3dea6c)"><path fill="#ffffff" d="M 187.613281 94.183594 C 187.164062 94.183594 186.730469 94.097656 186.316406 93.925781 C 185.898438 93.753906 185.53125 93.507812 185.214844 93.191406 C 184.894531 92.871094 184.648438 92.503906 184.476562 92.085938 C 184.304688 91.671875 184.21875 91.238281 184.21875 90.789062 L 184.21875 63.625 C 184.21875 63.171875 184.304688 62.742188 184.476562 62.324219 C 184.648438 61.910156 184.894531 61.542969 185.214844 61.222656 C 185.53125 60.90625 185.898438 60.660156 186.316406 60.488281 C 186.730469 60.316406 187.164062 60.226562 187.613281 60.226562 C 188.066406 60.226562 188.5 60.316406 188.914062 60.488281 C 189.332031 60.660156 189.699219 60.90625 190.015625 61.222656 C 190.335938 61.542969 190.578125 61.910156 190.75 62.324219 C 190.925781 62.742188 191.011719 63.171875 191.011719 63.625 L 191.011719 90.789062 C 191.011719 91.238281 190.925781 91.671875 190.75 92.085938 C 190.578125 92.503906 190.335938 92.871094 190.015625 93.191406 C 189.699219 93.507812 189.332031 93.753906 188.914062 93.925781 C 188.5 94.097656 188.066406 94.183594 187.613281 94.183594 Z M 187.613281 94.183594 " fill-opacity="1" fill-rule="nonzero"/></g><g clip-path="url(#342702d0d2)"><path fill="#ffffff" d="M 160.449219 121.347656 L 133.285156 121.347656 C 132.835938 121.347656 132.402344 121.261719 131.984375 121.089844 C 131.570312 120.917969 131.203125 120.671875 130.882812 120.355469 C 130.566406 120.035156 130.320312 119.667969 130.148438 119.253906 C 129.976562 118.835938 129.890625 118.402344 129.890625 117.953125 C 129.890625 117.503906 129.976562 117.070312 130.148438 116.652344 C 130.320312 116.238281 130.566406 115.871094 130.882812 115.550781 C 131.203125 115.234375 131.570312 114.988281 131.984375 114.816406 C 132.402344 114.644531 132.835938 114.558594 133.285156 114.558594 L 160.449219 114.558594 C 160.902344 114.558594 161.332031 114.644531 161.75 114.816406 C 162.164062 114.988281 162.53125 115.234375 162.851562 115.550781 C 163.167969 115.871094 163.414062 116.238281 163.585938 116.652344 C 163.757812 117.070312 163.84375 117.503906 163.84375 117.953125 C 163.84375 118.402344 163.757812 118.835938 163.585938 119.253906 C 163.414062 119.667969 163.167969 120.035156 162.851562 120.355469 C 162.53125 120.671875 162.164062 120.917969 161.75 121.089844 C 161.332031 121.261719 160.902344 121.347656 160.449219 121.347656 Z M 160.449219 121.347656 " fill-opacity="1" fill-rule="nonzero"/></g><path fill="#ffffff" d="M 241.945312 121.347656 L 214.777344 121.347656 C 214.328125 121.347656 213.894531 121.261719 213.480469 121.089844 C 213.0625 120.917969 212.695312 120.671875 212.378906 120.355469 C 212.058594 120.035156 211.8125 119.667969 211.640625 119.253906 C 211.46875 118.835938 211.382812 118.402344 211.382812 117.953125 C 211.382812 117.503906 211.46875 117.070312 211.640625 116.652344 C 211.8125 116.238281 212.058594 115.871094 212.378906 115.550781 C 212.695312 115.234375 213.0625 114.988281 213.480469 114.816406 C 213.894531 114.644531 214.328125 114.558594 214.777344 114.558594 L 241.945312 114.558594 C 242.394531 114.558594 242.828125 114.644531 243.242188 114.816406 C 243.660156 114.988281 244.027344 115.234375 244.34375 115.550781 C 244.664062 115.871094 244.910156 116.238281 245.082031 116.652344 C 245.253906 117.070312 245.339844 117.503906 245.339844 117.953125 C 245.339844 118.402344 245.253906 118.835938 245.082031 119.253906 C 244.910156 119.667969 244.664062 120.035156 244.34375 120.355469 C 244.027344 120.671875 243.660156 120.917969 243.242188 121.089844 C 242.828125 121.261719 242.394531 121.347656 241.945312 121.347656 Z M 241.945312 121.347656 " fill-opacity="1" fill-rule="nonzero"/><path fill="#ffffff" d="M 168.410156 102.144531 C 167.472656 102.144531 166.667969 101.8125 166.003906 101.152344 L 146.792969 81.960938 C 146.472656 81.640625 146.226562 81.269531 146.054688 80.851562 C 145.878906 80.433594 145.792969 80 145.792969 79.546875 C 145.792969 79.09375 145.882812 78.65625 146.054688 78.238281 C 146.226562 77.820312 146.472656 77.453125 146.792969 77.132812 C 147.113281 76.8125 147.484375 76.566406 147.902344 76.394531 C 148.320312 76.21875 148.753906 76.132812 149.207031 76.132812 C 149.660156 76.132812 150.097656 76.21875 150.515625 76.390625 C 150.933594 76.566406 151.300781 76.8125 151.621094 77.132812 L 170.804688 96.34375 C 171.292969 96.828125 171.605469 97.410156 171.738281 98.082031 C 171.875 98.757812 171.808594 99.414062 171.546875 100.046875 C 171.28125 100.683594 170.863281 101.191406 170.292969 101.574219 C 169.71875 101.953125 169.089844 102.144531 168.402344 102.144531 Z M 168.410156 102.144531 " fill-opacity="1" fill-rule="nonzero"/><path fill="#ffffff" d="M 149.195312 159.765625 C 148.507812 159.765625 147.878906 159.578125 147.308594 159.195312 C 146.734375 158.8125 146.316406 158.304688 146.054688 157.671875 C 145.792969 157.035156 145.726562 156.378906 145.859375 155.707031 C 145.996094 155.03125 146.304688 154.453125 146.792969 153.964844 L 166.003906 134.753906 C 166.324219 134.445312 166.691406 134.207031 167.105469 134.042969 C 167.519531 133.878906 167.949219 133.796875 168.394531 133.800781 C 168.839844 133.804688 169.265625 133.894531 169.675781 134.066406 C 170.085938 134.238281 170.449219 134.480469 170.765625 134.796875 C 171.078125 135.109375 171.324219 135.472656 171.496094 135.882812 C 171.667969 136.292969 171.753906 136.722656 171.757812 137.167969 C 171.761719 137.613281 171.683594 138.042969 171.519531 138.453125 C 171.351562 138.867188 171.117188 139.234375 170.804688 139.554688 L 151.621094 158.773438 C 150.953125 159.441406 150.144531 159.773438 149.195312 159.765625 Z M 149.195312 159.765625 " fill-opacity="1" fill-rule="nonzero"/><path fill="#ffffff" d="M 206.820312 102.144531 C 206.132812 102.144531 205.503906 101.953125 204.929688 101.574219 C 204.359375 101.191406 203.941406 100.683594 203.675781 100.046875 C 203.414062 99.414062 203.347656 98.757812 203.484375 98.082031 C 203.617188 97.410156 203.929688 96.828125 204.414062 96.34375 L 223.609375 77.132812 C 223.929688 76.820312 224.292969 76.585938 224.707031 76.421875 C 225.121094 76.253906 225.550781 76.175781 225.996094 76.179688 C 226.441406 76.183594 226.867188 76.269531 227.28125 76.441406 C 227.691406 76.613281 228.054688 76.859375 228.367188 77.171875 C 228.683594 77.488281 228.925781 77.851562 229.097656 78.261719 C 229.269531 78.671875 229.359375 79.097656 229.363281 79.542969 C 229.367188 79.988281 229.285156 80.417969 229.121094 80.832031 C 228.957031 81.246094 228.71875 81.613281 228.410156 81.933594 L 209.222656 101.144531 C 208.5625 101.808594 207.757812 102.144531 206.820312 102.144531 Z M 206.820312 102.144531 " fill-opacity="1" fill-rule="nonzero"/><g clip-path="url(#024e9bef9f)"><path stroke-linecap="round" transform="matrix(6.791135, 0, 0, 6.791135, 116.307755, 60.228337)" fill="none" stroke-linejoin="round" d="M 10.499795 23.500044 L 10.499795 8.500021 L 21.499889 17.50015 L 14.499725 17.50015 Z M 10.499795 23.500044 " stroke="#000000" stroke-width="1" stroke-opacity="1" stroke-miterlimit="4"/></g><g clip-path="url(#66251a64c0)"><path stroke-linecap="round" transform="matrix(6.791135, 0, 0, 6.791135, 116.307755, 60.228337)" fill="none" stroke-linejoin="round" d="M 10.499795 0.500161 L 10.499795 4.500091 " stroke="#000000" stroke-width="1" stroke-opacity="1" stroke-miterlimit="4"/></g><g clip-path="url(#7a80a19507)"><path stroke-linecap="round" transform="matrix(6.791135, 0, 0, 6.791135, 116.307755, 60.228337)" fill="none" stroke-linejoin="round" d="M 2.499936 8.500021 L 6.499865 8.500021 " stroke="#000000" stroke-width="1" stroke-opacity="1" stroke-miterlimit="4"/></g><path stroke-linecap="round" transform="matrix(6.791135, 0, 0, 6.791135, 116.307755, 60.228337)" fill="none" stroke-linejoin="round" d="M 18.500229 8.500021 L 14.499725 8.500021 " stroke="#000000" stroke-width="1" stroke-opacity="1" stroke-miterlimit="4"/><path stroke-linecap="round" transform="matrix(6.791135, 0, 0, 6.791135, 116.307755, 60.228337)" fill="none" stroke-linejoin="round" d="M 4.842719 2.842944 L 7.67212 5.67177 " stroke="#000000" stroke-width="1" stroke-opacity="1" stroke-miterlimit="4"/><path stroke-linecap="round" transform="matrix(6.791135, 0, 0, 6.791135, 116.307755, 60.228337)" fill="none" stroke-linejoin="round" d="M 4.842719 14.157097 L 7.67212 11.328271 " stroke="#000000" stroke-width="1" stroke-opacity="1" stroke-miterlimit="4"/><path stroke-linecap="round" transform="matrix(6.791135, 0, 0, 6.791135, 116.307755, 60.228337)" fill="none" stroke-linejoin="round" d="M 16.156871 2.842944 L 13.328045 5.67177 " stroke="#000000" stroke-width="1" stroke-opacity="1" stroke-miterlimit="4"/><g clip-path="url(#9e18303ad7)"><path fill="#ffffff" d="M 219.347656 339.5 L 219.347656 468.847656 L 155.175781 468.847656 L 155.175781 339.5 Z M 219.347656 339.5 " fill-opacity="1" fill-rule="nonzero"/></g><g clip-path="url(#4b3dd32675)"><path fill="#ffffff" d="M 219.347656 -80.386719 L 219.347656 48.957031 L 155.175781 48.957031 L 155.175781 -80.386719 Z M 219.347656 -80.386719 " fill-opacity="1" fill-rule="nonzero"/></g></svg>