<svg id="visual" viewBox="0 0 1920 1080" width="1920" height="1080" xmlns="http://www.w3.org/2000/svg" xmlns:xlink="http://www.w3.org/1999/xlink" version="1.1"><rect x="0" y="0" width="1920" height="1080" fill="#dae3ef"></rect><path d="M0 516L24.7 522.5C49.3 529 98.7 542 147.8 549.2C197 556.3 246 557.7 295.2 551.5C344.3 545.3 393.7 531.7 443 521.5C492.3 511.3 541.7 504.7 590.8 510.5C640 516.3 689 534.7 738.2 549.7C787.3 564.7 836.7 576.3 886 581.8C935.3 587.3 984.7 586.7 1034 585.3C1083.3 584 1132.7 582 1181.8 576.3C1231 570.7 1280 561.3 1329.2 555C1378.3 548.7 1427.7 545.3 1477 535.2C1526.3 525 1575.7 508 1624.8 499.2C1674 490.3 1723 489.7 1772.2 494.8C1821.3 500 1870.7 511 1895.3 516.5L1920 522L1920 1081L1895.3 1081C1870.7 1081 1821.3 1081 1772.2 1081C1723 1081 1674 1081 1624.8 1081C1575.7 1081 1526.3 1081 1477 1081C1427.7 1081 1378.3 1081 1329.2 1081C1280 1081 1231 1081 1181.8 1081C1132.7 1081 1083.3 1081 1034 1081C984.7 1081 935.3 1081 886 1081C836.7 1081 787.3 1081 738.2 1081C689 1081 640 1081 590.8 1081C541.7 1081 492.3 1081 443 1081C393.7 1081 344.3 1081 295.2 1081C246 1081 197 1081 147.8 1081C98.7 1081 49.3 1081 24.7 1081L0 1081Z" fill="#5098b3" stroke-linecap="round" stroke-linejoin="miter"></path></svg>