<svg id="visual" viewBox="0 0 1920 1080" width="1920" height="1080" xmlns="http://www.w3.org/2000/svg" xmlns:xlink="http://www.w3.org/1999/xlink" version="1.1"><rect x="0" y="0" width="1920" height="1080" fill="#dae3ef"></rect><path d="M0 788L45.7 805.3C91.3 822.7 182.7 857.3 274.2 863.3C365.7 869.3 457.3 846.7 548.8 828.5C640.3 810.3 731.7 796.7 823 791.2C914.3 785.7 1005.7 788.3 1097 797.3C1188.3 806.3 1279.7 821.7 1371.2 837.7C1462.7 853.7 1554.3 870.3 1645.8 877.2C1737.3 884 1828.7 881 1874.3 879.5L1920 878L1920 1081L1874.3 1081C1828.7 1081 1737.3 1081 1645.8 1081C1554.3 1081 1462.7 1081 1371.2 1081C1279.7 1081 1188.3 1081 1097 1081C1005.7 1081 914.3 1081 823 1081C731.7 1081 640.3 1081 548.8 1081C457.3 1081 365.7 1081 274.2 1081C182.7 1081 91.3 1081 45.7 1081L0 1081Z" fill="#5098b3" stroke-linecap="round" stroke-linejoin="miter"></path></svg>