<svg id="visual" viewBox="0 0 1920 1080" width="1920" height="1080" xmlns="http://www.w3.org/2000/svg" xmlns:xlink="http://www.w3.org/1999/xlink" version="1.1"><rect x="0" y="0" width="1920" height="1080" fill="#dae3ef"></rect><path d="M0 612L40 591.7C80 571.3 160 530.7 240 530.3C320 530 400 570 480 570C560 570 640 530 720 533.3C800 536.7 880 583.3 960 594.8C1040 606.3 1120 582.7 1200 554.5C1280 526.3 1360 493.7 1440 502C1520 510.3 1600 559.7 1680 558.5C1760 557.3 1840 505.7 1880 479.8L1920 454L1920 0L1880 0C1840 0 1760 0 1680 0C1600 0 1520 0 1440 0C1360 0 1280 0 1200 0C1120 0 1040 0 960 0C880 0 800 0 720 0C640 0 560 0 480 0C400 0 320 0 240 0C160 0 80 0 40 0L0 0Z" fill="#5098b3" stroke-linecap="round" stroke-linejoin="miter"></path></svg>